<svg width="1378" height="1066" viewBox="0 0 1378 1066" fill="none" xmlns="http://www.w3.org/2000/svg">
<path fill-rule="evenodd" clip-rule="evenodd" d="M909.963 135.352C910.997 135.352 911.946 135.352 912.98 135.438C924.188 135.697 935.568 135.956 949.448 136.646C964.622 137.421 982.64 138.714 998.072 140.783C1013.42 142.939 1026.18 145.87 1043.68 151.043C1061.18 156.216 1083.42 163.63 1101.79 171.562C1120.24 179.579 1134.81 188.114 1145.75 195.701C1156.79 203.374 1164.2 210.099 1171.27 217.514C1172.14 218.376 1172.91 219.324 1173.77 220.186C1179.89 226.91 1185.67 233.98 1190.41 241.222C1195.84 249.412 1199.9 257.689 1207.05 273.725C1214.12 289.846 1224.38 313.813 1232.14 333.125C1239.9 352.523 1245.24 367.352 1255.68 395.802C1266.11 424.166 1281.63 466.238 1293.26 498.913C1304.99 531.588 1312.83 554.952 1320.85 581.419C1328.96 607.973 1337.15 637.63 1343.18 660.994C1349.22 684.358 1353.01 701.428 1356.8 720.309C1360.6 739.103 1364.3 759.709 1367.49 778.158C1370.6 796.607 1373.18 812.988 1374.91 826.954C1376.63 840.834 1377.67 852.301 1377.92 865.923C1378.18 879.458 1377.75 895.149 1376.98 906.96C1376.11 918.685 1374.82 926.531 1371.37 938.256C1367.84 950.067 1362.06 965.672 1354.65 980.069C1347.15 994.381 1337.92 1007.4 1329.04 1017.66C1320.25 1027.83 1311.89 1035.25 1300.85 1042.49C1289.9 1049.64 1276.28 1056.71 1265.59 1061.02C1256.62 1064.64 1249.73 1066.37 1242.83 1065.94C1236.02 1057.49 1229.21 1048.95 1218.52 1036.28C1207.74 1023.52 1193.09 1006.54 1176.1 987.483C1159.12 968.517 1139.72 947.567 1119.37 925.928C1099.03 904.202 1077.65 881.786 1060.06 863.854C1042.47 845.921 1028.59 832.472 1015.4 822.04C1002.21 811.608 989.537 804.194 979.45 799.28C969.363 794.28 961.777 791.866 954.19 789.883C946.604 787.986 939.017 786.693 932.206 785.831C925.481 785.055 919.532 784.624 913.67 784.279H464.33C458.468 784.624 452.519 785.055 445.795 785.831C438.984 786.693 431.397 787.986 423.811 789.883C416.224 791.866 408.637 794.28 398.55 799.28C388.463 804.194 375.79 811.608 362.6 822.04C349.409 832.472 335.529 845.921 317.941 863.854C300.354 881.786 278.973 904.202 258.627 925.928C238.281 947.567 218.883 968.517 201.899 987.483C184.916 1006.54 170.259 1023.52 159.482 1036.28C148.792 1048.95 141.982 1057.49 135.171 1065.94C128.274 1066.37 121.29 1064.64 112.41 1061.02C101.72 1056.71 88.0983 1049.64 77.1494 1042.49C66.1143 1035.25 57.7516 1027.83 48.958 1017.66C40.0781 1007.4 30.853 994.381 23.3525 980.069C15.8521 965.672 10.1626 950.067 6.62793 938.256C3.17943 926.531 1.88557 918.685 1.02344 906.96C0.247548 895.149 -0.183436 879.458 0.0751982 865.923C0.333839 852.301 1.36853 840.834 3.09278 826.954C4.81701 812.988 7.31704 796.607 10.5068 778.158C13.6105 759.709 17.4039 739.103 21.1973 720.309C24.9906 701.428 28.7845 684.358 34.8193 660.994C40.768 637.63 49.0445 607.973 57.1484 581.419C65.1662 554.952 73.0117 531.588 84.6504 498.913C96.3753 466.238 111.893 424.166 122.325 395.802C132.757 367.352 138.102 352.523 145.861 333.125C153.62 313.813 163.88 289.846 170.949 273.725C178.105 257.689 182.156 249.412 187.588 241.222C192.33 233.98 198.106 226.91 204.227 220.186C205.002 219.323 205.865 218.376 206.728 217.514C213.797 210.099 221.211 203.374 232.246 195.701C243.195 188.114 257.765 179.579 276.128 171.562C294.577 163.63 316.82 156.216 334.321 151.043C351.822 145.87 364.582 142.939 379.928 140.783C395.36 138.714 413.378 137.421 428.552 136.646C442.432 135.956 453.812 135.697 465.02 135.438C466.054 135.352 467.003 135.352 468.037 135.352H909.963Z" fill="#3968BA"/>
<path fill-rule="evenodd" clip-rule="evenodd" d="M261.988 144C268.673 139.775 275.614 135.982 282.641 132.447C295.325 125.98 308.094 120.548 321.634 116.151C336.545 111.323 351.714 107.788 367.225 105.46C381.28 103.304 395.677 101.839 409.988 100.89C409.217 96.838 408.531 92.7857 407.674 88.7334C404.761 74.2486 401.676 59.6775 397.134 45.5375C393.534 34.2428 388.735 22.6032 382.308 12.6879C379.394 8.29076 376.223 3.97979 371.253 2.08296C365.168 -0.331178 356.77 -0.244959 350.343 0.358577C343.23 1.04833 333.289 2.85894 327.461 7.25612C321.634 11.6533 318.206 21.0512 315.806 27.7763C311.179 40.9679 307.579 54.5905 302.695 67.7821C297.296 82.5256 290.44 96.6656 282.556 110.202C276.385 120.893 269.444 131.067 263.359 141.845L263.188 142.189L262.931 142.534C262.588 143.052 262.331 143.483 261.988 144Z" fill="#1A1A1A"/>
<path fill-rule="evenodd" clip-rule="evenodd" d="M1114.99 144C1108.3 139.775 1101.36 135.982 1094.34 132.447C1081.65 125.98 1068.88 120.548 1055.34 116.151C1040.43 111.323 1025.18 107.788 1009.75 105.46C995.697 103.304 981.3 101.839 966.988 100.89C967.76 96.838 968.445 92.7857 969.302 88.7334C972.216 74.2486 975.301 59.6775 979.843 45.5375C983.442 34.2428 988.241 22.6032 994.669 12.6879C997.582 8.29076 1000.67 3.97979 1005.72 2.08296C1011.81 -0.331178 1020.21 -0.244959 1026.63 0.358577C1033.75 1.04833 1043.69 2.85894 1049.52 7.25612C1055.26 11.6533 1058.77 21.0512 1061.17 27.7763C1065.8 40.9679 1069.4 54.5905 1074.28 67.7821C1079.68 82.5256 1086.54 96.6656 1094.42 110.202C1100.59 120.893 1107.53 131.067 1113.62 141.845L1113.79 142.189L1114.05 142.534C1114.39 143.052 1114.65 143.483 1114.99 144Z" fill="#1A1A1A"/>
<path fill-rule="evenodd" clip-rule="evenodd" d="M689 784.279C614.082 784.279 539.249 784.279 464.33 784.279C458.468 784.624 452.519 785.055 445.795 785.831C438.984 786.693 431.397 787.986 423.81 789.883C416.224 791.866 408.637 794.28 398.55 799.28C388.463 804.194 375.79 811.608 362.599 822.04C349.409 832.472 335.529 845.921 317.941 863.854C300.354 881.786 278.973 904.202 258.627 925.927C238.281 947.567 218.883 968.517 201.899 987.484C184.915 1006.54 170.259 1023.52 159.483 1036.28C148.792 1048.95 141.981 1057.49 135.171 1065.94C136.55 1065.85 137.929 1065.68 139.309 1065.42C147.758 1063.78 156.724 1058.95 169.225 1049.64C181.725 1040.33 197.847 1026.54 214.659 1009.3C231.47 992.053 248.971 971.189 264.921 951.188C280.87 931.272 295.267 912.219 306.992 896.615C318.803 881.01 327.856 868.854 338.805 857.129C349.754 845.318 362.427 834.024 375.445 825.403C388.463 816.781 401.826 810.919 412.861 806.608C423.897 802.384 432.69 799.711 441.915 798.332C451.054 796.952 460.537 796.78 470.107 796.607C543.042 796.607 616.064 796.607 689 796.607C761.936 796.607 834.958 796.607 907.894 796.607C917.377 796.78 926.947 796.952 936.086 798.332C945.31 799.711 954.104 802.384 965.139 806.608C976.174 810.919 989.537 816.781 1002.56 825.403C1015.57 834.024 1028.25 845.318 1039.2 857.129C1050.14 868.854 1059.2 881.01 1070.92 896.615C1082.73 912.219 1097.13 931.272 1113.08 951.188C1129.03 971.189 1146.53 992.053 1163.34 1009.3C1180.15 1026.54 1196.28 1040.33 1208.78 1049.64C1221.28 1058.95 1230.24 1063.78 1238.61 1065.42C1240.07 1065.68 1241.45 1065.85 1242.83 1065.94C1236.02 1057.49 1229.21 1048.95 1218.52 1036.28C1207.74 1023.52 1193.09 1006.54 1176.1 987.484C1159.12 968.517 1139.72 947.567 1119.37 925.927C1099.03 904.202 1077.65 881.786 1060.06 863.854C1042.47 845.921 1028.59 832.472 1015.4 822.04C1002.21 811.608 989.537 804.194 979.45 799.28C969.364 794.28 961.777 791.866 954.19 789.883C946.603 787.986 939.017 786.693 932.206 785.831C925.481 785.055 919.533 784.624 913.67 784.279C838.752 784.279 763.919 784.279 689 784.279Z" fill="#F5F6FB"/>
<circle cx="506.5" cy="597.5" r="107.5" fill="#111111"/>
<path d="M474 689.451C446.297 679.659 424.341 657.703 414.549 630H474V689.451Z" fill="#333333"/>
<path d="M598.451 630C588.659 657.703 566.703 679.659 539 689.451V630H598.451Z" fill="#333333"/>
<path d="M539 505.548C566.703 515.34 588.659 537.297 598.451 565H539V505.548Z" fill="#333333"/>
<path d="M474 565H414.549C424.341 537.297 446.297 515.34 474 505.548V565Z" fill="#333333"/>
<circle cx="334.988" cy="373" r="90" fill="#111111"/>
<path d="M334.988 453C379.171 453 414.988 417.183 414.988 373C414.988 328.817 379.171 293 334.988 293C290.806 293 254.988 328.817 254.988 373C254.988 417.183 290.806 453 334.988 453Z" fill="#3968BA"/>
<path fill-rule="evenodd" clip-rule="evenodd" d="M334.988 273C390.217 273 434.988 317.772 434.988 373C434.988 428.228 390.217 473 334.988 473C279.76 473 234.988 428.228 234.988 373C234.988 317.772 279.76 273 334.988 273ZM334.988 283C285.283 283 244.988 323.294 244.988 373C244.988 422.706 285.283 463 334.988 463C384.694 463 424.988 422.706 424.988 373C424.988 323.294 384.694 283 334.988 283Z" fill="#2B509D"/>
<circle cx="872.988" cy="590" r="90" fill="#111111"/>
<path d="M872.988 670C917.171 670 952.988 634.183 952.988 590C952.988 545.817 917.171 510 872.988 510C828.805 510 792.988 545.817 792.988 590C792.988 634.183 828.805 670 872.988 670Z" fill="#3968BA"/>
<path fill-rule="evenodd" clip-rule="evenodd" d="M872.988 490C928.217 490 972.988 534.772 972.988 590C972.988 645.228 928.217 690 872.988 690C817.76 690 772.988 645.228 772.988 590C772.988 534.772 817.76 490 872.988 490ZM872.988 500C823.283 500 782.988 540.294 782.988 590C782.988 639.706 823.283 680 872.988 680C922.694 680 962.988 639.706 962.988 590C962.988 540.294 922.694 500 872.988 500Z" fill="#2B509D"/>
<path d="M1045 513C1072.61 513 1095 490.614 1095 463C1095 435.386 1072.61 413 1045 413C1017.39 413 995 435.386 995 463C995 490.614 1017.39 513 1045 513Z" fill="#111111"/>
<path d="M1137 421C1164.61 421 1187 398.614 1187 371C1187 343.386 1164.61 321 1137 321C1109.39 321 1087 343.386 1087 371C1087 398.614 1109.39 421 1137 421Z" fill="#111111"/>
<path d="M952 421C979.614 421 1002 398.614 1002 371C1002 343.386 979.614 321 952 321C924.386 321 902 343.386 902 371C902 398.614 924.386 421 952 421Z" fill="#111111"/>
<path d="M1045 328C1072.61 328 1095 305.614 1095 278C1095 250.386 1072.61 228 1045 228C1017.39 228 995 250.386 995 278C995 305.614 1017.39 328 1045 328Z" fill="#111111"/>
<rect x="649" y="422" width="80" height="50" rx="25" fill="#111111"/>
<rect x="654" y="427" width="70" height="40" rx="20" fill="#3968BA"/>
<path d="M669 442.25V458.548H709.096V442.25M689.048 452.25V436M684.048 441.05L689.048 436.05L694.048 441.05" stroke="#111111" stroke-width="3.5" stroke-linecap="round"/>
<circle cx="783" cy="372" r="34" fill="#111111"/>
<circle cx="595" cy="372" r="34" fill="#111111"/>
<circle cx="689" cy="232" r="55" fill="#111111"/>
<circle cx="689" cy="232" r="50" fill="#F5F6FB"/>
<path fill-rule="evenodd" clip-rule="evenodd" d="M700.813 232.778C702.02 233.985 703.227 235.106 704.262 236.227C705.383 237.434 706.417 238.468 707.624 239.761C708.745 240.968 710.038 242.434 711.159 243.727C712.28 245.107 713.314 246.4 714.176 247.607C715.125 248.727 715.9 249.848 716.762 251.141C717.711 252.521 718.745 254.072 719.435 255.366C720.211 256.659 720.728 257.693 721.245 258.814C721.763 259.935 722.28 261.142 722.625 262.09C722.883 263.125 723.056 263.901 723.228 264.676C723.315 265.366 723.315 266.056 723.315 266.573C723.315 267.09 723.228 267.435 723.228 267.78C723.142 268.125 723.056 268.383 722.97 268.728C725.125 266.745 727.108 264.59 728.832 262.263C728.918 262.09 728.918 261.918 729.005 261.573C729.005 261.314 729.177 260.711 729.177 260.193C729.263 259.676 729.263 259.159 729.263 258.728C729.263 258.211 729.263 257.866 729.263 257.435C729.177 256.917 729.091 256.4 729.005 255.797C728.918 255.107 728.746 254.417 728.66 253.728C728.487 253.038 728.315 252.434 728.056 251.659C727.884 250.883 727.539 250.021 727.28 249.158C726.935 248.21 726.591 247.434 726.16 246.313C725.728 245.279 725.125 244.072 724.694 243.037C724.177 242.089 723.832 241.313 723.315 240.365C722.883 239.417 722.28 238.296 721.677 237.175C721.073 236.141 720.556 235.192 719.866 233.985C719.176 232.865 718.314 231.399 717.625 230.192C716.935 229.071 716.331 228.123 715.642 227.002C714.866 225.795 713.918 224.33 713.055 223.036C712.193 221.743 711.417 220.623 710.642 219.588C709.952 218.553 709.262 217.691 708.486 216.657C707.71 215.622 706.848 214.415 706.159 213.553C705.469 212.691 705.038 212.174 704.607 211.484C704.089 210.881 703.486 210.105 702.882 209.329C703.4 208.812 703.745 208.467 704.176 208.122C704.607 207.691 705.124 207.26 705.641 206.829C706.159 206.312 706.762 205.794 707.279 205.277C707.883 204.846 708.4 204.329 709.004 203.811C709.521 203.38 710.124 202.863 710.728 202.346C711.417 201.829 712.021 201.311 712.624 200.88C713.314 200.449 713.831 200.018 714.349 199.673C714.866 199.242 715.383 198.984 715.814 198.725C716.331 198.38 716.849 198.121 717.366 197.863C717.883 197.518 718.401 197.346 718.832 197.087C719.349 196.915 719.78 196.742 720.297 196.57C720.814 196.397 721.332 196.225 721.763 196.139C722.108 196.052 722.366 196.052 722.539 196.052C722.711 195.966 722.883 196.052 723.056 196.052C723.228 196.052 723.487 196.052 723.746 196.052C720.987 193.38 717.883 190.966 714.521 188.983C714.004 188.983 713.4 188.983 712.883 188.983C712.366 188.983 711.762 188.897 711.245 188.897C710.728 188.897 710.21 188.983 709.693 188.983C709.176 188.983 708.572 189.069 707.883 189.156C707.107 189.328 706.245 189.5 705.038 189.845C703.917 190.104 702.451 190.535 700.986 191.052C699.434 191.656 697.796 192.259 696.33 192.863C694.865 193.466 693.572 194.07 692.451 194.673C691.33 195.19 690.296 195.708 689.003 196.483C687.796 195.708 686.761 195.19 685.64 194.673C684.433 194.07 683.14 193.466 681.675 192.863C680.209 192.259 678.657 191.656 677.105 191.052C675.554 190.535 674.174 190.104 672.967 189.845C671.847 189.5 670.898 189.328 670.209 189.156C669.433 189.069 668.915 188.983 668.398 188.983C667.881 188.983 667.364 188.897 666.76 188.897C666.243 188.897 665.726 188.983 665.208 188.983C664.605 188.983 664.088 188.983 663.57 188.983C660.208 190.966 657.104 193.38 654.259 196.052C654.518 196.052 654.777 196.052 655.035 196.052C655.208 196.052 655.294 195.966 655.466 196.052C655.725 196.052 655.898 196.052 656.329 196.139C656.673 196.225 657.191 196.397 657.708 196.57C658.225 196.742 658.656 196.915 659.173 197.087C659.691 197.346 660.122 197.518 660.639 197.863C661.156 198.121 661.674 198.38 662.191 198.725C662.708 198.984 663.139 199.242 663.656 199.673C664.174 200.018 664.777 200.449 665.381 200.88C665.984 201.311 666.674 201.829 667.277 202.346C667.881 202.863 668.484 203.38 669.088 203.811C669.605 204.329 670.209 204.846 670.726 205.277C671.329 205.794 671.933 206.312 672.45 206.829C672.967 207.26 673.398 207.691 673.916 208.122C674.26 208.467 674.605 208.812 675.209 209.329C674.605 210.105 674.002 210.881 673.485 211.484C672.967 212.174 672.536 212.691 671.847 213.553C671.243 214.415 670.295 215.622 669.519 216.657C668.743 217.691 668.139 218.553 667.364 219.588C666.674 220.623 665.898 221.743 665.036 223.036C664.174 224.33 663.225 225.795 662.45 227.002C661.674 228.123 661.156 229.071 660.38 230.192C659.691 231.399 658.829 232.865 658.139 233.985C657.449 235.192 656.932 236.141 656.415 237.175C655.811 238.296 655.208 239.417 654.691 240.365C654.173 241.313 653.828 242.089 653.397 243.037C652.88 244.072 652.363 245.279 651.846 246.313C651.414 247.434 651.07 248.21 650.811 249.158C650.466 250.021 650.208 250.883 649.949 251.659C649.69 252.434 649.604 253.038 649.432 253.728C649.259 254.417 649.173 255.107 649.001 255.797C648.914 256.4 648.828 256.917 648.828 257.435C648.742 257.866 648.742 258.211 648.742 258.728C648.742 259.159 648.828 259.676 648.828 260.193C648.914 260.711 649.001 261.314 649.087 261.573C649.173 261.918 649.173 262.09 649.173 262.263C650.983 264.59 652.88 266.745 655.035 268.728C654.949 268.383 654.949 268.125 654.863 267.78C654.777 267.435 654.777 267.09 654.777 266.573C654.691 266.056 654.777 265.366 654.863 264.676C654.949 263.901 655.122 263.125 655.466 262.09C655.811 261.142 656.242 259.935 656.76 258.814C657.277 257.693 657.794 256.659 658.57 255.366C659.346 254.072 660.38 252.521 661.243 251.141C662.105 249.848 662.967 248.727 663.829 247.607C664.777 246.4 665.726 245.107 666.932 243.727C668.053 242.434 669.26 240.968 670.467 239.761C671.588 238.468 672.622 237.434 673.743 236.227C674.864 235.106 675.985 233.985 677.192 232.778C678.399 231.571 679.692 230.278 681.071 229.071C682.364 227.778 683.657 226.571 685.554 224.847C686.589 223.899 687.796 222.778 689.003 221.571C690.296 222.778 691.503 223.899 692.537 224.847C694.348 226.571 695.727 227.778 697.02 229.071C698.313 230.278 699.606 231.571 700.813 232.778Z" fill="#3968BA"/>
</svg>
