<svg width="148" height="144" viewBox="0 0 148 144" fill="none" xmlns="http://www.w3.org/2000/svg">
<path fill-rule="evenodd" clip-rule="evenodd" d="M0 144C6.68442 139.775 13.626 135.982 20.6532 132.447C33.3364 125.98 46.1054 120.548 59.6456 116.151C74.557 111.323 89.7255 107.788 105.237 105.46C119.291 103.304 133.688 101.839 148 100.89C147.229 96.838 146.543 92.7857 145.686 88.7334C142.772 74.2486 139.687 59.6775 135.145 45.5375C131.546 34.2428 126.747 22.6032 120.32 12.6879C117.406 8.29076 114.235 3.97979 109.265 2.08296C103.18 -0.331178 94.7817 -0.244959 88.3544 0.358577C81.2415 1.04833 71.3005 2.85894 65.4731 7.25612C59.6456 11.6533 56.2177 21.0512 53.8182 27.7763C49.1905 40.9679 45.5912 54.5905 40.7064 67.7821C35.3075 82.5256 28.4516 96.6656 20.5675 110.202C14.3972 120.893 7.4557 131.067 1.37116 141.845L1.19976 142.189L0.94268 142.534C0.599889 143.052 0.342791 143.483 0 144Z" fill="#F5F6FB"/>
</svg>
