<svg width="261" height="111" viewBox="0 0 261 111" fill="none" xmlns="http://www.w3.org/2000/svg">
<path fill-rule="evenodd" clip-rule="evenodd" d="M175.701 30.7809C191.133 28.7117 209.152 27.4185 224.325 26.6426C238.205 25.9529 249.585 25.6943 260.793 25.4356C252.603 17.4178 244.413 9.48619 239.843 5.26174C235.188 1.03729 234.24 0.520013 231.308 0.261374C228.291 -0.0834794 223.377 -0.169695 211.566 0.520011C199.841 1.20972 181.219 2.76156 164.58 5.26174C148.027 7.84814 133.543 11.3829 120.353 15.6073C107.076 19.918 95.0925 25.0046 82.5054 31.3843C69.8322 37.7641 56.5554 45.4371 44.8305 54.6619C33.1056 63.8867 22.9325 74.6634 15.7769 84.1469C8.53505 93.6303 4.22442 101.907 0 110.183C0.775913 109.321 1.63803 108.373 2.50016 107.511C9.56959 100.096 16.9839 93.3717 28.0191 85.6987C38.9681 78.1119 53.538 69.5768 71.9013 61.559C90.3508 53.6274 112.594 46.213 130.095 41.0402C147.596 35.8674 160.355 32.9362 175.701 30.7809Z" fill="#F5F6FB"/>
</svg>
