<svg width="261" height="111" viewBox="0 0 261 111" fill="none" xmlns="http://www.w3.org/2000/svg">
<path fill-rule="evenodd" clip-rule="evenodd" d="M20.9497 5.26174C16.3804 9.48619 8.1902 17.4178 0 25.4356C11.2076 25.6943 22.5877 25.9529 36.4679 26.6426C51.6413 27.4185 69.6597 28.7117 85.0918 30.7809C100.438 32.9362 113.197 35.8674 130.698 41.0402C148.199 46.213 170.442 53.6274 188.806 61.559C207.255 69.5768 221.825 78.1119 232.774 85.6987C243.809 93.3717 251.223 100.096 258.293 107.511C259.155 108.373 259.931 109.321 260.793 110.183C256.482 101.907 252.258 93.6303 245.016 84.1469C237.861 74.6634 227.687 63.8867 215.962 54.6619C204.238 45.4371 190.961 37.7641 178.288 31.3843C165.614 25.0046 153.717 19.918 140.44 15.6073C127.25 11.3829 112.766 7.84814 96.127 5.26174C79.5742 2.76156 60.9523 1.20972 49.2274 0.520011C37.4163 -0.169695 32.5021 -0.0834794 29.4847 0.261374C26.5535 0.520013 25.6051 1.03729 20.9497 5.26174Z" fill="#F5F6FB"/>
</svg>
