<svg width="148" height="144" viewBox="0 0 148 144" fill="none" xmlns="http://www.w3.org/2000/svg">
<path fill-rule="evenodd" clip-rule="evenodd" d="M148 144C141.316 139.775 134.374 135.982 127.347 132.447C114.664 125.98 101.895 120.548 88.3544 116.151C73.443 111.323 58.1888 107.788 42.7632 105.46C28.7088 103.304 14.3115 101.839 0 100.89C0.77128 96.838 1.4569 92.7857 2.31388 88.7334C5.2276 74.2486 8.31268 59.6775 12.8547 45.5375C16.454 34.2428 21.2531 22.6032 27.6804 12.6879C30.5941 8.29076 33.6793 3.97979 38.7354 2.08296C44.82 -0.331178 53.2183 -0.244959 59.6456 0.358577C66.7585 1.04833 76.6995 2.85894 82.527 7.25612C88.2687 11.6533 91.7823 21.0512 94.1819 27.7763C98.8096 40.9679 102.409 54.5905 107.294 67.7821C112.693 82.5256 119.548 96.6656 127.433 110.202C133.603 120.893 140.544 131.067 146.629 141.845L146.8 142.189L147.057 142.534C147.4 143.052 147.657 143.483 148 144Z" fill="#F5F6FB"/>
</svg>
