<svg width="160" height="160" viewBox="0 0 160 160" fill="none" xmlns="http://www.w3.org/2000/svg">
<path d="M80 160C124.183 160 160 124.183 160 80C160 35.8172 124.183 0 80 0C35.8172 0 0 35.8172 0 80C0 124.183 35.8172 160 80 160Z" fill="#1A1A1A"/>
<g filter="url(#filter0_ii_32_177)">
<circle cx="80" cy="80" r="50" fill="#1A1A1A"/>
</g>
<path fill-rule="evenodd" clip-rule="evenodd" d="M80 0C124.183 0 160 35.8172 160 80C160 124.183 124.183 160 80 160C35.8172 160 4.1238e-06 124.183 0 80C0 35.8172 35.8172 8.2476e-06 80 0ZM80 5C38.5786 5 5 38.5786 5 80C5 121.421 38.5786 155 80 155C121.421 155 155 121.421 155 80C155 38.5786 121.421 5 80 5Z" fill="#353535"/>
<path fill-rule="evenodd" clip-rule="evenodd" d="M80 25C110.376 25 135 49.6243 135 80C135 110.376 110.376 135 80 135C49.6243 135 25 110.376 25 80C25 49.6243 49.6243 25 80 25ZM80 30C52.3858 30 30 52.3858 30 80C30 107.614 52.3858 130 80 130C107.614 130 130 107.614 130 80C130 52.3858 107.614 30 80 30Z" fill="#353535"/>
<defs>
<filter id="filter0_ii_32_177" x="30" y="27" width="100" height="121" filterUnits="userSpaceOnUse" color-interpolation-filters="sRGB">
<feFlood flood-opacity="0" result="BackgroundImageFix"/>
<feBlend mode="normal" in="SourceGraphic" in2="BackgroundImageFix" result="shape"/>
<feColorMatrix in="SourceAlpha" type="matrix" values="0 0 0 0 0 0 0 0 0 0 0 0 0 0 0 0 0 0 127 0" result="hardAlpha"/>
<feOffset dy="20"/>
<feGaussianBlur stdDeviation="9"/>
<feComposite in2="hardAlpha" operator="arithmetic" k2="-1" k3="1"/>
<feColorMatrix type="matrix" values="0 0 0 0 0 0 0 0 0 0 0 0 0 0 0 0 0 0 0.75 0"/>
<feBlend mode="normal" in2="shape" result="effect1_innerShadow_32_177"/>
<feColorMatrix in="SourceAlpha" type="matrix" values="0 0 0 0 0 0 0 0 0 0 0 0 0 0 0 0 0 0 127 0" result="hardAlpha"/>
<feOffset dy="-3"/>
<feGaussianBlur stdDeviation="9"/>
<feComposite in2="hardAlpha" operator="arithmetic" k2="-1" k3="1"/>
<feColorMatrix type="matrix" values="0 0 0 0 0 0 0 0 0 0 0 0 0 0 0 0 0 0 0.75 0"/>
<feBlend mode="normal" in2="effect1_innerShadow_32_177" result="effect2_innerShadow_32_177"/>
</filter>
</defs>
</svg>
