<svg width="58" height="58" viewBox="0 0 58 58" fill="none" xmlns="http://www.w3.org/2000/svg">
<path d="M29 58C45.0163 58 58 45.0162 58 29C58 12.9837 45.0163 0 29 0C12.9838 0 0 12.9837 0 29C0 45.0162 12.9838 58 29 58Z" fill="#F5F6FB"/>
<path d="M10.8918 17.9118H46.5359C46.8979 17.9118 47.2008 18.2065 47.2008 18.5686V21.2133C47.2008 21.5755 46.8979 21.8703 46.5359 21.8703H10.8918C10.5299 21.8703 10.2354 21.5755 10.2354 21.2133V18.5686C10.2354 18.2065 10.5299 17.9118 10.9002 17.9118H10.8918Z" fill="#1A1A1A"/>
<path d="M10.8918 27.1598H46.5359C46.8979 27.1598 47.2008 27.4546 47.2008 27.8168V30.4615C47.2008 30.8236 46.8979 31.1184 46.5359 31.1184H10.8918C10.5299 31.1184 10.2354 30.8236 10.2354 30.4615V27.8168C10.2354 27.4546 10.5299 27.1598 10.9002 27.1598H10.8918Z" fill="#1A1A1A"/>
<path d="M10.8918 36.4079H46.5359C46.8979 36.4079 47.2008 36.7027 47.2008 37.0649V39.7095C47.2008 40.0717 46.8979 40.3664 46.5359 40.3664H10.8918C10.5299 40.3664 10.2354 40.0717 10.2354 39.7095V37.0649C10.2354 36.7027 10.5299 36.4079 10.9002 36.4079H10.8918Z" fill="#1A1A1A"/>
</svg>
