<svg width="58" height="58" viewBox="0 0 58 58" fill="none" xmlns="http://www.w3.org/2000/svg">
<path d="M29 58C45.0163 58 58 45.0162 58 29C58 12.9837 45.0163 0 29 0C12.9838 0 0 12.9837 0 29C0 45.0162 12.9838 58 29 58Z" fill="#3968BA"/>
<path fill-rule="evenodd" clip-rule="evenodd" d="M14.1996 29.9676V16.7527H32.6823V22.0336H36.6381V14.108C36.6381 13.3836 36.049 12.7941 35.3167 12.7941H11.5568C10.8329 12.7941 10.2354 13.3836 10.2354 14.108V32.6038C10.2354 33.3366 10.8329 33.9261 11.5568 33.9261H19.4768V29.9676H14.1996Z" fill="#1A1A1A"/>
<path fill-rule="evenodd" clip-rule="evenodd" d="M25.9237 28.485H44.7178V42.0114H25.9237V28.485ZM47.2007 24.678H23.4408C22.7085 24.678 22.1194 25.2675 22.1194 26.0003V44.4961C22.1194 45.2205 22.7085 45.81 23.4408 45.8184L47.2007 45.81C47.933 45.81 48.5221 45.2205 48.5221 44.4961V26.0003C48.5221 25.2675 47.933 24.678 47.2007 24.678Z" fill="#1A1A1A"/>
</svg>
