<svg width="90" height="90" viewBox="0 0 90 90" fill="none" xmlns="http://www.w3.org/2000/svg">
<circle cx="45" cy="45" r="45" fill="#F5F6FB"/>
<path d="M26 69V21H45.2025C48.7308 21 51.6736 21.5234 54.031 22.5703C56.3884 23.6172 58.1603 25.0703 59.3468 26.9297C60.5333 28.7734 61.1266 30.8984 61.1266 33.3047C61.1266 35.1797 60.7519 36.8281 60.0025 38.25C59.2532 39.6563 58.2228 40.8125 56.9114 41.7188C55.6156 42.6094 54.1325 43.2422 52.462 43.6172V44.0859C54.2886 44.1641 55.9981 44.6797 57.5905 45.6328C59.1985 46.5859 60.5021 47.9219 61.5013 49.6406C62.5004 51.3438 63 53.375 63 55.7344C63 58.2813 62.3677 60.5547 61.1032 62.5547C59.8542 64.5391 58.0042 66.1094 55.5532 67.2656C53.1021 68.4219 50.0812 69 46.4905 69H26ZM36.1399 60.7031H44.4063C47.2321 60.7031 49.2928 60.1641 50.5886 59.0859C51.8844 57.9922 52.5323 56.5391 52.5323 54.7266C52.5323 53.3984 52.2122 52.2266 51.5722 51.2109C50.9321 50.1953 50.0188 49.3984 48.8323 48.8203C47.6614 48.2422 46.2641 47.9531 44.6405 47.9531H36.1399V60.7031ZM36.1399 41.0859H43.657C45.0464 41.0859 46.2797 40.8438 47.357 40.3594C48.4498 39.8594 49.3084 39.1563 49.9329 38.25C50.573 37.3438 50.893 36.2578 50.893 34.9922C50.893 33.2578 50.2764 31.8594 49.043 30.7969C47.8253 29.7344 46.0924 29.2031 43.8443 29.2031H36.1399V41.0859Z" fill="#3968BA"/>
</svg>
