<svg width="200" height="200" viewBox="0 0 200 200" fill="none" xmlns="http://www.w3.org/2000/svg">
<path d="M66.6899 194.309C38.2763 184.266 15.7562 161.747 5.71338 133.333H66.6899V194.309Z" fill="#333333"/>
<path d="M194.31 133.333C184.267 161.747 161.747 184.266 133.333 194.309V133.333H194.31Z" fill="#333333"/>
<path d="M133.333 5.71429C161.747 15.7571 184.267 38.277 194.31 66.6909H133.333V5.71429Z" fill="#333333"/>
<path d="M66.6899 66.6909H5.71338C15.7562 38.277 38.2761 15.7571 66.6899 5.71429V66.6909Z" fill="#333333"/>
<path d="M66.667 133.334H5.69141C2.00621 122.908 0 111.688 0 99.9997C3.83942e-05 88.3119 2.0054 77.0926 5.69043 66.6667H66.667V133.334Z" fill="#1A1A1A"/>
<path d="M194.31 66.6667C197.995 77.0926 200 88.312 200 99.9997C200 111.688 197.994 122.908 194.309 133.334H133.333V66.6667H194.31Z" fill="#F5F6FB"/>
<path d="M133.334 194.309C122.908 197.994 111.688 200 100 200C88.3122 200 77.0929 197.994 66.667 194.309V133.333H133.334V194.309Z" fill="#1A1A1A"/>
<path d="M99.9995 0C111.688 0 122.907 2.00528 133.333 5.69043V66.667H66.6665V5.69043C77.0924 2.0054 88.3118 2.79265e-05 99.9995 0Z" fill="#1A1A1A"/>
<rect x="66.667" y="66.6667" width="66.6667" height="66.6667" fill="black"/>
</svg>
